<?xml version="1.0" encoding="UTF-8"?>
<svg xmlns="http://www.w3.org/2000/svg" xmlns:xlink="http://www.w3.org/1999/xlink" width="204.9" height="68.0" viewBox="188.8 65.0 204.9 68.0">
<path fill-rule="nonzero" fill="rgb(0%, 11.372375%, 28.234863%)" fill-opacity="1" d="M 266.714844 108.796875 L 275.503906 108.796875 L 275.503906 125.664062 C 270.929688 129.105469 264.636719 130.949219 258.695312 130.949219 C 245.628906 130.949219 236.007812 121.980469 236.007812 109.449219 C 236.007812 96.917969 245.628906 87.949219 258.875 87.949219 C 266.179688 87.949219 272.238281 90.441406 276.277344 95.132812 L 270.101562 100.835938 C 267.070312 97.628906 263.566406 96.144531 259.347656 96.144531 C 251.273438 96.144531 245.746094 101.546875 245.746094 109.449219 C 245.746094 117.230469 251.273438 122.753906 259.230469 122.753906 C 261.84375 122.753906 264.277344 122.277344 266.714844 120.96875 Z M 266.714844 108.796875 "/>
<path fill-rule="nonzero" fill="rgb(0%, 11.372375%, 28.234863%)" fill-opacity="1" d="M 191.257812 126.136719 L 194.523438 118.890625 C 198.027344 121.445312 203.253906 123.226562 208.242188 123.226562 C 213.945312 123.226562 216.261719 121.328125 216.261719 118.773438 C 216.261719 110.992188 192.085938 116.339844 192.085938 100.894531 C 192.085938 93.828125 197.789062 87.949219 209.609375 87.949219 C 214.835938 87.949219 220.179688 89.195312 224.039062 91.628906 L 221.070312 98.9375 C 217.210938 96.738281 213.230469 95.667969 209.546875 95.667969 C 203.847656 95.667969 201.648438 97.808594 201.648438 100.421875 C 201.648438 108.082031 225.824219 102.796875 225.824219 118.0625 C 225.824219 125.007812 220.0625 130.949219 208.183594 130.949219 C 201.589844 130.949219 194.9375 128.988281 191.257812 126.136719 "/>
<path fill-rule="nonzero" fill="rgb(0%, 11.372375%, 28.234863%)" fill-opacity="1" d="M 372.898438 89.371094 L 363.464844 89.371094 L 345.066406 130.648438 L 354.855469 130.648438 L 358.507812 121.800781 L 358.601562 121.800781 L 361.617188 114.550781 L 361.578125 114.550781 L 368.121094 98.746094 L 368.152344 98.828125 L 368.164062 98.804688 L 381.40625 130.648438 L 391.351562 130.648438 Z M 372.898438 89.371094 "/>
<path fill-rule="nonzero" fill="rgb(0%, 11.372375%, 28.234863%)" fill-opacity="1" d="M 334.625 103.089844 L 325.648438 118.148438 L 325.671875 130.949219 L 334.703125 130.949219 Z M 334.625 103.089844 "/>
<path fill-rule="nonzero" fill="rgb(0%, 11.372375%, 28.234863%)" fill-opacity="1" d="M 334.628906 89.371094 L 324.652344 106.09375 L 310.230469 130.269531 L 304.734375 121.050781 L 295.902344 106.535156 L 295.902344 130.949219 L 286.875 130.949219 L 286.875 89.371094 L 294.835938 89.371094 L 310.398438 115.207031 L 325.71875 89.371094 Z M 334.628906 89.371094 "/>
<path fill-rule="nonzero" fill="rgb(100%, 31.37207%, 1.176453%)" fill-opacity="1" d="M 348.046875 66.847656 L 348.046875 80.714844 L 336.285156 100.453125 L 336.285156 86.566406 Z M 348.046875 66.847656 "/>
<path fill-rule="nonzero" fill="rgb(10.588074%, 14.509583%, 26.274109%)" fill-opacity="1" d="M 294.371094 244.558594 L 136.386719 244.558594 L 136.386719 170.582031 L 294.371094 170.582031 Z M 294.371094 244.558594 "/>
<path fill-rule="nonzero" fill="rgb(100%, 100%, 100%)" fill-opacity="1" d="M 150.253906 179.359375 L 151.070312 179.359375 L 151.699219 181.085938 C 151.78125 181.316406 151.851562 181.558594 151.925781 181.796875 L 151.949219 181.796875 C 152.027344 181.558594 152.09375 181.316406 152.175781 181.085938 L 152.789062 179.359375 L 153.605469 179.359375 L 153.605469 183.050781 L 152.933594 183.050781 L 152.933594 181.507812 C 152.933594 181.160156 152.988281 180.644531 153.023438 180.296875 L 153.003906 180.296875 L 152.703125 181.164062 L 152.132812 182.714844 L 151.710938 182.714844 L 151.136719 181.164062 L 150.839844 180.296875 L 150.820312 180.296875 C 150.855469 180.644531 150.917969 181.160156 150.917969 181.507812 L 150.917969 183.050781 L 150.253906 183.050781 Z M 150.253906 179.359375 "/>
<path fill-rule="nonzero" fill="rgb(100%, 100%, 100%)" fill-opacity="1" d="M 156.03125 181.527344 L 155.921875 181.125 C 155.808594 180.738281 155.707031 180.316406 155.597656 179.917969 L 155.578125 179.917969 C 155.484375 180.320312 155.375 180.738281 155.261719 181.125 L 155.152344 181.527344 Z M 156.191406 182.101562 L 154.996094 182.101562 L 154.734375 183.050781 L 153.984375 183.050781 L 155.167969 179.359375 L 156.039062 179.359375 L 157.226562 183.050781 L 156.449219 183.050781 Z M 156.191406 182.101562 "/>
<path fill-rule="nonzero" fill="rgb(100%, 100%, 100%)" fill-opacity="1" d="M 157.605469 179.359375 L 158.34375 179.359375 L 158.34375 183.050781 L 157.605469 183.050781 Z M 157.605469 179.359375 "/>
<path fill-rule="nonzero" fill="rgb(100%, 100%, 100%)" fill-opacity="1" d="M 159.199219 179.359375 L 159.953125 179.359375 L 161.027344 181.324219 L 161.394531 182.121094 L 161.421875 182.121094 C 161.382812 181.738281 161.328125 181.25 161.328125 180.832031 L 161.328125 179.359375 L 162.023438 179.359375 L 162.023438 183.050781 L 161.277344 183.050781 L 160.210938 181.074219 L 159.835938 180.28125 L 159.808594 180.28125 C 159.84375 180.679688 159.898438 181.144531 159.898438 181.570312 L 159.898438 183.050781 L 159.199219 183.050781 Z M 159.199219 179.359375 "/>
<path fill-rule="nonzero" fill="rgb(100%, 100%, 100%)" fill-opacity="1" d="M 163.457031 181.21875 C 163.457031 180 164.242188 179.289062 165.175781 179.289062 C 165.644531 179.289062 166.019531 179.511719 166.257812 179.761719 L 165.867188 180.230469 C 165.683594 180.050781 165.46875 179.921875 165.1875 179.921875 C 164.632812 179.921875 164.210938 180.402344 164.210938 181.195312 C 164.210938 181.996094 164.589844 182.484375 165.175781 182.484375 C 165.488281 182.484375 165.738281 182.332031 165.9375 182.117188 L 166.328125 182.578125 C 166.023438 182.929688 165.628906 183.121094 165.148438 183.121094 C 164.21875 183.121094 163.457031 182.453125 163.457031 181.21875 "/>
<path fill-rule="nonzero" fill="rgb(100%, 100%, 100%)" fill-opacity="1" d="M 169.039062 181.1875 C 169.039062 180.394531 168.691406 179.921875 168.140625 179.921875 C 167.59375 179.921875 167.242188 180.394531 167.242188 181.1875 C 167.242188 181.976562 167.59375 182.480469 168.140625 182.480469 C 168.691406 182.480469 169.039062 181.976562 169.039062 181.1875 M 166.488281 181.1875 C 166.488281 179.988281 167.164062 179.289062 168.140625 179.289062 C 169.121094 179.289062 169.792969 179.992188 169.792969 181.1875 C 169.792969 182.386719 169.121094 183.121094 168.140625 183.121094 C 167.164062 183.121094 166.488281 182.386719 166.488281 181.1875 "/>
<path fill-rule="nonzero" fill="rgb(100%, 100%, 100%)" fill-opacity="1" d="M 170.460938 179.359375 L 171.199219 179.359375 L 171.199219 182.433594 L 172.695312 182.433594 L 172.695312 183.050781 L 170.460938 183.050781 Z M 170.460938 179.359375 "/>
<path fill-rule="nonzero" fill="rgb(100%, 100%, 100%)" fill-opacity="1" d="M 175.464844 181.1875 C 175.464844 180.394531 175.113281 179.921875 174.566406 179.921875 C 174.015625 179.921875 173.667969 180.394531 173.667969 181.1875 C 173.667969 181.976562 174.015625 182.480469 174.566406 182.480469 C 175.113281 182.480469 175.464844 181.976562 175.464844 181.1875 M 172.914062 181.1875 C 172.914062 179.988281 173.589844 179.289062 174.566406 179.289062 C 175.542969 179.289062 176.21875 179.992188 176.21875 181.1875 C 176.21875 182.386719 175.542969 183.121094 174.566406 183.121094 C 173.589844 183.121094 172.914062 182.386719 172.914062 181.1875 "/>
<path fill-rule="nonzero" fill="rgb(100%, 100%, 100%)" fill-opacity="1" d="M 177.625 181.070312 L 178.105469 181.070312 C 178.578125 181.070312 178.839844 180.871094 178.839844 180.476562 C 178.839844 180.078125 178.578125 179.941406 178.105469 179.941406 L 177.625 179.941406 Z M 178.898438 183.050781 L 178.140625 181.652344 L 177.625 181.652344 L 177.625 183.050781 L 176.886719 183.050781 L 176.886719 179.359375 L 178.175781 179.359375 C 178.949219 179.359375 179.5625 179.628906 179.5625 180.476562 C 179.5625 181.03125 179.28125 181.375 178.859375 181.539062 L 179.722656 183.050781 Z M 178.898438 183.050781 "/>
<path fill-rule="nonzero" fill="rgb(100%, 31.37207%, 1.176453%)" fill-opacity="1" d="M 184.0625 180.765625 C 183.996094 180.089844 183.742188 179.84375 183.425781 179.84375 C 183.152344 179.84375 182.929688 180.066406 182.929688 180.519531 C 182.929688 180.953125 183.132812 181.160156 183.453125 181.160156 C 183.652344 181.160156 183.882812 181.050781 184.0625 180.765625 M 182.699219 182.261719 C 182.835938 182.40625 183.0625 182.523438 183.28125 182.523438 C 183.695312 182.523438 184.039062 182.207031 184.070312 181.28125 C 183.882812 181.527344 183.566406 181.683594 183.3125 181.683594 C 182.699219 181.683594 182.253906 181.304688 182.253906 180.519531 C 182.253906 179.761719 182.785156 179.289062 183.417969 179.289062 C 184.117188 179.289062 184.746094 179.835938 184.746094 181.121094 C 184.746094 182.515625 184.0625 183.121094 183.328125 183.121094 C 182.867188 183.121094 182.535156 182.925781 182.3125 182.699219 Z M 182.699219 182.261719 "/>
<path fill-rule="nonzero" fill="rgb(100%, 31.37207%, 1.176453%)" fill-opacity="1" d="M 185.070312 182.617188 L 185.410156 182.148438 C 185.621094 182.351562 185.878906 182.523438 186.222656 182.523438 C 186.609375 182.523438 186.878906 182.277344 186.878906 181.84375 C 186.878906 181.414062 186.628906 181.175781 186.253906 181.175781 C 186.035156 181.175781 185.914062 181.230469 185.699219 181.371094 L 185.367188 181.148438 L 185.464844 179.359375 L 187.441406 179.359375 L 187.441406 179.972656 L 186.097656 179.972656 L 186.03125 180.757812 C 186.175781 180.683594 186.304688 180.648438 186.472656 180.648438 C 187.09375 180.648438 187.613281 181.019531 187.613281 181.824219 C 187.613281 182.644531 187.003906 183.121094 186.320312 183.121094 C 185.734375 183.121094 185.34375 182.890625 185.070312 182.617188 "/>
<path fill-rule="nonzero" fill="rgb(100%, 31.37207%, 1.176453%)" fill-opacity="1" d="M 191.957031 181.941406 C 191.957031 181.398438 191.785156 181.1875 191.570312 181.1875 C 191.355469 181.1875 191.1875 181.398438 191.1875 181.941406 C 191.1875 182.488281 191.355469 182.703125 191.570312 182.703125 C 191.785156 182.703125 191.957031 182.488281 191.957031 181.941406 M 190.671875 181.941406 C 190.671875 181.199219 191.046875 180.773438 191.570312 180.773438 C 192.097656 180.773438 192.476562 181.199219 192.476562 181.941406 C 192.476562 182.679688 192.097656 183.121094 191.570312 183.121094 C 191.046875 183.121094 190.671875 182.679688 190.671875 181.941406 M 191.019531 179.289062 L 191.453125 179.289062 L 189.441406 183.121094 L 189.011719 183.121094 Z M 189.269531 180.449219 C 189.269531 179.90625 189.101562 179.703125 188.886719 179.703125 C 188.671875 179.703125 188.507812 179.90625 188.507812 180.449219 C 188.507812 180.996094 188.671875 181.214844 188.886719 181.214844 C 189.101562 181.214844 189.269531 180.996094 189.269531 180.449219 M 187.988281 180.449219 C 187.988281 179.714844 188.359375 179.289062 188.886719 179.289062 C 189.414062 179.289062 189.789062 179.714844 189.789062 180.449219 C 189.789062 181.195312 189.414062 181.628906 188.886719 181.628906 C 188.359375 181.628906 187.988281 181.195312 187.988281 180.449219 "/>
<path fill-rule="nonzero" fill="rgb(100%, 100%, 100%)" fill-opacity="1" d="M 151.230469 188.242188 C 151.949219 188.242188 152.292969 188 152.292969 187.414062 C 152.292969 186.828125 151.933594 186.640625 151.210938 186.640625 L 150.628906 186.640625 L 150.628906 188.242188 Z M 150.328125 186.394531 L 151.269531 186.394531 C 152.09375 186.394531 152.597656 186.660156 152.597656 187.414062 C 152.597656 188.144531 152.097656 188.492188 151.289062 188.492188 L 150.628906 188.492188 L 150.628906 190.03125 L 150.328125 190.03125 Z M 150.328125 186.394531 "/>
<path fill-rule="nonzero" fill="rgb(100%, 100%, 100%)" fill-opacity="1" d="M 154.617188 188.566406 L 154.394531 187.910156 C 154.246094 187.484375 154.128906 187.101562 153.996094 186.664062 L 153.976562 186.664062 C 153.851562 187.101562 153.726562 187.484375 153.582031 187.910156 L 153.359375 188.566406 Z M 154.695312 188.808594 L 153.277344 188.808594 L 152.863281 190.03125 L 152.566406 190.03125 L 153.839844 186.390625 L 154.148438 186.390625 L 155.417969 190.03125 L 155.097656 190.03125 Z M 154.695312 188.808594 "/>
<path fill-rule="nonzero" fill="rgb(100%, 100%, 100%)" fill-opacity="1" d="M 155.929688 186.390625 L 156.238281 186.390625 L 157.726562 188.890625 L 158.128906 189.625 L 158.15625 189.625 C 158.136719 189.265625 158.117188 188.902344 158.117188 188.546875 L 158.117188 186.390625 L 158.402344 186.390625 L 158.402344 190.03125 L 158.089844 190.03125 L 156.609375 187.523438 L 156.199219 186.796875 L 156.175781 186.796875 C 156.191406 187.144531 156.214844 187.484375 156.214844 187.847656 L 156.214844 190.03125 L 155.929688 190.03125 Z M 155.929688 186.390625 "/>
<path fill-rule="nonzero" fill="rgb(100%, 100%, 100%)" fill-opacity="1" d="M 160.179688 186.648438 L 159.035156 186.648438 L 159.035156 186.390625 L 161.628906 186.390625 L 161.628906 186.648438 L 160.480469 186.648438 L 160.480469 190.03125 L 160.179688 190.03125 Z M 160.179688 186.648438 "/>
<path fill-rule="nonzero" fill="rgb(100%, 100%, 100%)" fill-opacity="1" d="M 164.625 188.199219 C 164.625 187.210938 164.148438 186.597656 163.425781 186.597656 C 162.707031 186.597656 162.230469 187.210938 162.230469 188.199219 C 162.230469 189.1875 162.707031 189.824219 163.425781 189.824219 C 164.148438 189.824219 164.625 189.1875 164.625 188.199219 M 161.917969 188.199219 C 161.917969 187.046875 162.546875 186.328125 163.425781 186.328125 C 164.3125 186.328125 164.9375 187.046875 164.9375 188.199219 C 164.9375 189.355469 164.3125 190.09375 163.425781 190.09375 C 162.546875 190.09375 161.917969 189.355469 161.917969 188.199219 "/>
<path fill-rule="nonzero" fill="rgb(100%, 100%, 100%)" fill-opacity="1" d="M 165.714844 186.390625 L 166.027344 186.390625 L 167.511719 188.890625 L 167.917969 189.625 L 167.941406 189.625 C 167.921875 189.265625 167.902344 188.902344 167.902344 188.546875 L 167.902344 186.390625 L 168.1875 186.390625 L 168.1875 190.03125 L 167.878906 190.03125 L 166.394531 187.523438 L 165.988281 186.796875 L 165.960938 186.796875 C 165.976562 187.144531 166 187.484375 166 187.847656 L 166 190.03125 L 165.714844 190.03125 Z M 165.714844 186.390625 "/>
<path fill-rule="nonzero" fill="rgb(100%, 100%, 100%)" fill-opacity="1" d="M 169.191406 186.390625 L 171.203125 186.390625 L 171.203125 186.648438 L 169.492188 186.648438 L 169.492188 187.976562 L 170.933594 187.976562 L 170.933594 188.230469 L 169.492188 188.230469 L 169.492188 189.769531 L 171.257812 189.769531 L 171.257812 190.03125 L 169.191406 190.03125 Z M 169.191406 186.390625 "/>
<path fill-rule="nonzero" fill="rgb(100%, 100%, 100%)" fill-opacity="1" d="M 172.433594 189.851562 C 173.667969 188.789062 174.15625 188.039062 174.15625 187.378906 C 174.15625 186.925781 173.925781 186.570312 173.410156 186.570312 C 173.097656 186.570312 172.8125 186.765625 172.605469 187.027344 L 172.417969 186.851562 C 172.695312 186.546875 173.003906 186.328125 173.441406 186.328125 C 174.074219 186.328125 174.449219 186.742188 174.449219 187.371094 C 174.449219 188.132812 173.863281 188.898438 172.894531 189.800781 C 173.09375 189.785156 173.300781 189.769531 173.492188 189.769531 L 174.625 189.769531 L 174.625 190.03125 L 172.433594 190.03125 Z M 172.433594 189.851562 "/>
<path fill-rule="nonzero" fill="rgb(100%, 100%, 100%)" fill-opacity="1" d="M 176.90625 186.648438 L 175.066406 186.648438 L 175.066406 186.390625 L 177.261719 186.390625 L 177.261719 186.566406 C 176.398438 187.699219 176.21875 188.609375 176.164062 190.03125 L 175.847656 190.03125 C 175.910156 188.578125 176.183594 187.65625 176.90625 186.648438 "/>
<path fill-rule="nonzero" fill="rgb(100%, 100%, 100%)" fill-opacity="1" d="M 179.597656 188.933594 C 179.597656 188.402344 179.378906 188.023438 178.863281 188.023438 C 178.621094 188.023438 178.308594 188.164062 178.027344 188.542969 C 178.074219 189.339844 178.355469 189.851562 178.910156 189.851562 C 179.304688 189.851562 179.597656 189.460938 179.597656 188.933594 M 179.644531 186.867188 C 179.488281 186.675781 179.273438 186.578125 179.050781 186.578125 C 178.5 186.578125 178.039062 187.011719 178.023438 188.265625 C 178.261719 187.96875 178.582031 187.789062 178.898438 187.789062 C 179.519531 187.789062 179.886719 188.183594 179.886719 188.933594 C 179.886719 189.617188 179.433594 190.09375 178.90625 190.09375 C 178.203125 190.09375 177.738281 189.472656 177.738281 188.3125 C 177.738281 186.847656 178.363281 186.328125 179.042969 186.328125 C 179.386719 186.328125 179.628906 186.46875 179.820312 186.675781 Z M 179.644531 186.867188 "/>
<path fill-rule="nonzero" fill="rgb(100%, 100%, 100%)" fill-opacity="1" d="M 182.109375 187.304688 C 182.109375 186.910156 181.855469 186.578125 181.414062 186.578125 C 181.035156 186.578125 180.761719 186.855469 180.761719 187.242188 C 180.761719 187.734375 181.214844 187.941406 181.667969 188.117188 C 181.957031 187.878906 182.109375 187.605469 182.109375 187.304688 M 182.210938 189.167969 C 182.210938 188.613281 181.703125 188.414062 181.152344 188.199219 C 180.808594 188.402344 180.558594 188.71875 180.558594 189.113281 C 180.558594 189.535156 180.917969 189.859375 181.414062 189.859375 C 181.898438 189.859375 182.210938 189.554688 182.210938 189.167969 M 180.285156 189.125 C 180.285156 188.628906 180.644531 188.273438 180.980469 188.089844 L 180.980469 188.070312 C 180.71875 187.894531 180.480469 187.625 180.480469 187.242188 C 180.480469 186.710938 180.890625 186.34375 181.417969 186.34375 C 182.023438 186.34375 182.382812 186.746094 182.382812 187.292969 C 182.382812 187.691406 182.085938 188.035156 181.882812 188.199219 L 181.882812 188.222656 C 182.191406 188.40625 182.5 188.671875 182.5 189.171875 C 182.5 189.6875 182.0625 190.09375 181.414062 190.09375 C 180.761719 190.09375 180.285156 189.679688 180.285156 189.125 "/>
<path fill-rule="nonzero" fill="rgb(100%, 100%, 100%)" fill-opacity="1" d="M 182.976562 188.207031 C 182.976562 187.046875 183.621094 186.328125 184.542969 186.328125 C 184.972656 186.328125 185.308594 186.539062 185.503906 186.765625 L 185.332031 186.960938 C 185.136719 186.742188 184.878906 186.597656 184.542969 186.597656 C 183.777344 186.597656 183.289062 187.214844 183.289062 188.199219 C 183.289062 189.191406 183.765625 189.824219 184.527344 189.824219 C 184.898438 189.824219 185.171875 189.671875 185.433594 189.386719 L 185.601562 189.578125 C 185.324219 189.898438 184.984375 190.097656 184.515625 190.097656 C 183.617188 190.097656 182.976562 189.371094 182.976562 188.207031 "/>
<path fill-rule="nonzero" fill="rgb(100%, 100%, 100%)" fill-opacity="1" d="M 150.097656 218.378906 C 150.097656 217.214844 150.742188 216.496094 151.664062 216.496094 C 152.09375 216.496094 152.429688 216.707031 152.625 216.9375 L 152.453125 217.128906 C 152.257812 216.910156 152 216.765625 151.664062 216.765625 C 150.898438 216.765625 150.410156 217.386719 150.410156 218.367188 C 150.410156 219.359375 150.886719 219.996094 151.648438 219.996094 C 152.019531 219.996094 152.292969 219.839844 152.554688 219.554688 L 152.722656 219.746094 C 152.445312 220.070312 152.105469 220.265625 151.636719 220.265625 C 150.738281 220.265625 150.097656 219.542969 150.097656 218.378906 "/>
<path fill-rule="nonzero" fill="rgb(100%, 100%, 100%)" fill-opacity="1" d="M 153.332031 219.945312 L 154.15625 219.945312 L 154.15625 216.984375 L 153.523438 216.984375 L 153.523438 216.792969 C 153.816406 216.742188 154.042969 216.660156 154.21875 216.5625 L 154.449219 216.5625 L 154.449219 219.945312 L 155.210938 219.945312 L 155.210938 220.199219 L 153.332031 220.199219 Z M 153.332031 219.945312 "/>
<path fill-rule="nonzero" fill="rgb(100%, 100%, 100%)" fill-opacity="1" d="M 157.609375 218.367188 C 157.609375 217.285156 157.296875 216.742188 156.828125 216.742188 C 156.355469 216.742188 156.046875 217.285156 156.046875 218.367188 C 156.046875 219.472656 156.355469 220.019531 156.828125 220.019531 C 157.296875 220.019531 157.609375 219.472656 157.609375 218.367188 M 155.757812 218.367188 C 155.757812 217.105469 156.164062 216.496094 156.828125 216.496094 C 157.488281 216.496094 157.898438 217.105469 157.898438 218.367188 C 157.898438 219.644531 157.488281 220.265625 156.828125 220.265625 C 156.164062 220.265625 155.757812 219.644531 155.757812 218.367188 "/>
<path fill-rule="nonzero" fill="rgb(100%, 100%, 100%)" fill-opacity="1" d="M 160.222656 218.367188 C 160.222656 217.285156 159.914062 216.742188 159.445312 216.742188 C 158.972656 216.742188 158.664062 217.285156 158.664062 218.367188 C 158.664062 219.472656 158.972656 220.019531 159.445312 220.019531 C 159.914062 220.019531 160.222656 219.472656 160.222656 218.367188 M 158.375 218.367188 C 158.375 217.105469 158.78125 216.496094 159.445312 216.496094 C 160.105469 216.496094 160.511719 217.105469 160.511719 218.367188 C 160.511719 219.644531 160.105469 220.265625 159.445312 220.265625 C 158.78125 220.265625 158.375 219.644531 158.375 218.367188 "/>
<path fill-rule="nonzero" fill="rgb(100%, 100%, 100%)" fill-opacity="1" d="M 162.734375 216.5625 L 163.132812 216.5625 L 163.882812 218.652344 L 164.167969 219.449219 L 164.1875 219.449219 C 164.28125 219.1875 164.367188 218.917969 164.457031 218.652344 L 165.203125 216.5625 L 165.605469 216.5625 L 165.605469 220.199219 L 165.320312 220.199219 L 165.320312 217.894531 C 165.320312 217.59375 165.339844 217.195312 165.355469 216.890625 L 165.332031 216.890625 L 165.050781 217.703125 L 164.285156 219.808594 L 164.046875 219.808594 L 163.277344 217.703125 L 162.996094 216.890625 L 162.972656 216.890625 C 162.988281 217.195312 163.007812 217.59375 163.007812 217.894531 L 163.007812 220.199219 L 162.734375 220.199219 Z M 162.734375 216.5625 "/>
<path fill-rule="nonzero" fill="rgb(100%, 100%, 100%)" fill-opacity="1" d="M 168.175781 218.035156 C 168.144531 217.242188 167.855469 216.734375 167.285156 216.734375 C 166.890625 216.734375 166.597656 217.128906 166.597656 217.660156 C 166.597656 218.183594 166.824219 218.566406 167.324219 218.566406 C 167.597656 218.566406 167.902344 218.414062 168.175781 218.035156 M 166.558594 219.726562 C 166.722656 219.914062 166.941406 220.015625 167.191406 220.015625 C 167.695312 220.015625 168.148438 219.574219 168.179688 218.316406 C 167.941406 218.605469 167.628906 218.804688 167.289062 218.804688 C 166.683594 218.804688 166.308594 218.398438 166.308594 217.660156 C 166.308594 216.976562 166.761719 216.496094 167.289062 216.496094 C 167.996094 216.496094 168.464844 217.085938 168.464844 218.183594 C 168.464844 219.714844 167.851562 220.265625 167.1875 220.265625 C 166.832031 220.265625 166.578125 220.121094 166.382812 219.914062 Z M 166.558594 219.726562 "/>
<path fill-rule="nonzero" fill="rgb(100%, 100%, 100%)" fill-opacity="1" d="M 170.746094 217.476562 C 170.746094 217.082031 170.492188 216.746094 170.046875 216.746094 C 169.667969 216.746094 169.394531 217.027344 169.394531 217.410156 C 169.394531 217.902344 169.847656 218.109375 170.304688 218.289062 C 170.59375 218.046875 170.746094 217.773438 170.746094 217.476562 M 170.847656 219.335938 C 170.847656 218.78125 170.335938 218.582031 169.789062 218.367188 C 169.445312 218.574219 169.195312 218.886719 169.195312 219.28125 C 169.195312 219.707031 169.554688 220.03125 170.046875 220.03125 C 170.53125 220.03125 170.847656 219.726562 170.847656 219.335938 M 168.921875 219.296875 C 168.921875 218.796875 169.28125 218.441406 169.613281 218.257812 L 169.613281 218.238281 C 169.355469 218.0625 169.113281 217.792969 169.113281 217.410156 C 169.113281 216.882812 169.523438 216.511719 170.054688 216.511719 C 170.65625 216.511719 171.015625 216.914062 171.015625 217.464844 C 171.015625 217.859375 170.722656 218.203125 170.519531 218.367188 L 170.519531 218.394531 C 170.828125 218.578125 171.136719 218.84375 171.136719 219.339844 C 171.136719 219.855469 170.695312 220.265625 170.046875 220.265625 C 169.394531 220.265625 168.921875 219.851562 168.921875 219.296875 "/>
<path fill-rule="nonzero" fill="rgb(100%, 100%, 100%)" fill-opacity="1" d="M 173.894531 218.738281 L 172.800781 216.5625 L 173.121094 216.5625 L 173.65625 217.675781 C 173.785156 217.9375 173.902344 218.195312 174.035156 218.460938 L 174.054688 218.460938 C 174.195312 218.195312 174.328125 217.9375 174.445312 217.675781 L 174.980469 216.5625 L 175.289062 216.5625 L 174.195312 218.738281 L 174.195312 220.199219 L 173.894531 220.199219 Z M 173.894531 218.738281 "/>
<path fill-rule="nonzero" fill="rgb(100%, 100%, 100%)" fill-opacity="1" d="M 177.402344 219.101562 C 177.402344 218.574219 177.183594 218.195312 176.664062 218.195312 C 176.421875 218.195312 176.109375 218.332031 175.832031 218.710938 C 175.875 219.511719 176.160156 220.019531 176.714844 220.019531 C 177.109375 220.019531 177.402344 219.628906 177.402344 219.101562 M 177.445312 217.035156 C 177.292969 216.847656 177.078125 216.746094 176.851562 216.746094 C 176.304688 216.746094 175.839844 217.179688 175.824219 218.433594 C 176.066406 218.136719 176.382812 217.957031 176.703125 217.957031 C 177.320312 217.957031 177.691406 218.351562 177.691406 219.101562 C 177.691406 219.785156 177.238281 220.265625 176.707031 220.265625 C 176.003906 220.265625 175.539062 219.640625 175.539062 218.484375 C 175.539062 217.015625 176.164062 216.496094 176.847656 216.496094 C 177.1875 216.496094 177.429688 216.636719 177.621094 216.847656 Z M 177.445312 217.035156 "/>
<path fill-rule="nonzero" fill="rgb(100%, 100%, 100%)" fill-opacity="1" d="M 179.976562 218.367188 C 179.976562 217.285156 179.667969 216.742188 179.199219 216.742188 C 178.726562 216.742188 178.417969 217.285156 178.417969 218.367188 C 178.417969 219.472656 178.726562 220.019531 179.199219 220.019531 C 179.667969 220.019531 179.976562 219.472656 179.976562 218.367188 M 178.128906 218.367188 C 178.128906 217.105469 178.535156 216.496094 179.199219 216.496094 C 179.859375 216.496094 180.265625 217.105469 180.265625 218.367188 C 180.265625 219.644531 179.859375 220.265625 179.199219 220.265625 C 178.535156 220.265625 178.128906 219.644531 178.128906 218.367188 "/>
<path fill-rule="nonzero" fill="rgb(100%, 100%, 100%)" fill-opacity="1" d="M 182.488281 216.5625 L 182.789062 216.5625 L 182.789062 218.535156 L 182.796875 218.535156 L 184.503906 216.5625 L 184.859375 216.5625 L 183.703125 217.914062 L 185.023438 220.199219 L 184.679688 220.199219 L 183.503906 218.148438 L 182.789062 218.972656 L 182.789062 220.199219 L 182.488281 220.199219 Z M 182.488281 216.5625 "/>
<path fill-rule="nonzero" fill="rgb(100%, 100%, 100%)" fill-opacity="1" d="M 185.242188 220.019531 C 186.472656 218.957031 186.960938 218.207031 186.960938 217.550781 C 186.960938 217.09375 186.730469 216.742188 186.21875 216.742188 C 185.902344 216.742188 185.621094 216.933594 185.410156 217.195312 L 185.226562 217.019531 C 185.5 216.71875 185.808594 216.496094 186.25 216.496094 C 186.882812 216.496094 187.253906 216.910156 187.253906 217.539062 C 187.253906 218.300781 186.667969 219.066406 185.699219 219.96875 C 185.898438 219.957031 186.109375 219.941406 186.296875 219.941406 L 187.429688 219.941406 L 187.429688 220.199219 L 185.242188 220.199219 Z M 185.242188 220.019531 "/>
<path fill-rule="nonzero" fill="rgb(100%, 100%, 100%)" fill-opacity="1" d="M 189.730469 218.035156 C 189.699219 217.242188 189.410156 216.734375 188.839844 216.734375 C 188.445312 216.734375 188.152344 217.128906 188.152344 217.660156 C 188.152344 218.183594 188.378906 218.566406 188.878906 218.566406 C 189.148438 218.566406 189.457031 218.414062 189.730469 218.035156 M 188.113281 219.726562 C 188.277344 219.914062 188.496094 220.015625 188.746094 220.015625 C 189.25 220.015625 189.703125 219.574219 189.734375 218.316406 C 189.496094 218.605469 189.183594 218.804688 188.84375 218.804688 C 188.238281 218.804688 187.863281 218.398438 187.863281 217.660156 C 187.863281 216.976562 188.316406 216.496094 188.84375 216.496094 C 189.550781 216.496094 190.019531 217.085938 190.019531 218.183594 C 190.019531 219.714844 189.402344 220.265625 188.742188 220.265625 C 188.386719 220.265625 188.132812 220.121094 187.9375 219.914062 Z M 188.113281 219.726562 "/>
<path fill-rule="nonzero" fill="rgb(100%, 100%, 100%)" fill-opacity="1" d="M 150.628906 226.285156 L 151.320312 226.285156 C 151.949219 226.285156 152.300781 226.035156 152.300781 225.511719 C 152.300781 224.980469 151.949219 224.789062 151.320312 224.789062 L 150.628906 224.789062 Z M 152.339844 228.175781 L 151.371094 226.535156 L 150.628906 226.535156 L 150.628906 228.175781 L 150.328125 228.175781 L 150.328125 224.539062 L 151.390625 224.539062 C 152.113281 224.539062 152.601562 224.804688 152.601562 225.511719 C 152.601562 226.089844 152.25 226.425781 151.695312 226.507812 L 152.679688 228.175781 Z M 152.339844 228.175781 "/>
<path fill-rule="nonzero" fill="rgb(100%, 100%, 100%)" fill-opacity="1" d="M 153.003906 227.996094 C 154.238281 226.933594 154.726562 226.183594 154.726562 225.527344 C 154.726562 225.070312 154.496094 224.71875 153.980469 224.71875 C 153.667969 224.71875 153.382812 224.910156 153.175781 225.171875 L 152.988281 224.996094 C 153.265625 224.695312 153.574219 224.472656 154.011719 224.472656 C 154.644531 224.472656 155.019531 224.886719 155.019531 225.515625 C 155.019531 226.277344 154.433594 227.042969 153.464844 227.945312 C 153.664062 227.933594 153.871094 227.917969 154.0625 227.917969 L 155.195312 227.917969 L 155.195312 228.175781 L 153.003906 228.175781 Z M 153.003906 227.996094 "/>
<path fill-rule="nonzero" fill="rgb(100%, 100%, 100%)" fill-opacity="1" d="M 157.511719 226.34375 C 157.511719 225.261719 157.203125 224.71875 156.734375 224.71875 C 156.261719 224.71875 155.953125 225.261719 155.953125 226.34375 C 155.953125 227.445312 156.261719 227.996094 156.734375 227.996094 C 157.203125 227.996094 157.511719 227.445312 157.511719 226.34375 M 155.664062 226.34375 C 155.664062 225.082031 156.070312 224.472656 156.734375 224.472656 C 157.394531 224.472656 157.800781 225.082031 157.800781 226.34375 C 157.800781 227.621094 157.394531 228.242188 156.734375 228.242188 C 156.070312 228.242188 155.664062 227.621094 155.664062 226.34375 "/>
<path fill-rule="nonzero" fill="rgb(100%, 100%, 100%)" fill-opacity="1" d="M 159.792969 226.355469 C 159.792969 225.191406 160.457031 224.472656 161.414062 224.472656 C 161.910156 224.472656 162.222656 224.703125 162.421875 224.914062 L 162.25 225.105469 C 162.0625 224.90625 161.816406 224.742188 161.421875 224.742188 C 160.613281 224.742188 160.109375 225.363281 160.109375 226.34375 C 160.109375 227.335938 160.582031 227.972656 161.402344 227.972656 C 161.710938 227.972656 162.011719 227.875 162.175781 227.710938 L 162.175781 226.621094 L 161.332031 226.621094 L 161.332031 226.363281 L 162.464844 226.363281 L 162.464844 227.828125 C 162.234375 228.070312 161.855469 228.242188 161.371094 228.242188 C 160.433594 228.242188 159.792969 227.519531 159.792969 226.355469 "/>
<path fill-rule="nonzero" fill="rgb(100%, 100%, 100%)" fill-opacity="1" d="M 162.953125 227.742188 L 163.117188 227.546875 C 163.328125 227.773438 163.613281 227.992188 164.078125 227.992188 C 164.546875 227.992188 164.886719 227.683594 164.886719 227.214844 C 164.886719 226.722656 164.546875 226.394531 163.679688 226.394531 L 163.679688 226.148438 C 164.476562 226.148438 164.753906 225.804688 164.753906 225.371094 C 164.753906 224.976562 164.484375 224.71875 164.066406 224.710938 C 163.753906 224.71875 163.46875 224.882812 163.269531 225.097656 L 163.101562 224.898438 C 163.347656 224.664062 163.65625 224.472656 164.070312 224.46875 C 164.632812 224.472656 165.054688 224.789062 165.054688 225.351562 C 165.054688 225.820312 164.777344 226.121094 164.386719 226.25 L 164.386719 226.273438 C 164.824219 226.371094 165.183594 226.699219 165.183594 227.214844 C 165.183594 227.847656 164.707031 228.242188 164.085938 228.242188 C 163.523438 228.242188 163.183594 227.984375 162.953125 227.742188 "/>
<path fill-rule="nonzero" fill="rgb(100%, 100%, 100%)" fill-opacity="1" d="M 167.117188 226.894531 L 167.117188 225.550781 C 167.117188 225.386719 167.132812 225.117188 167.148438 224.949219 L 167.125 224.949219 C 167.039062 225.113281 166.9375 225.289062 166.835938 225.453125 L 165.847656 226.894531 Z M 167.917969 227.136719 L 167.402344 227.136719 L 167.402344 228.175781 L 167.117188 228.175781 L 167.117188 227.136719 L 165.511719 227.136719 L 165.511719 226.953125 L 167.117188 224.539062 L 167.402344 224.539062 L 167.402344 226.894531 L 167.917969 226.894531 Z M 167.917969 227.136719 "/>
<path fill-rule="nonzero" fill="rgb(100%, 100%, 100%)" fill-opacity="1" d="M 171.050781 227.925781 C 171.753906 227.925781 172.183594 227.675781 172.183594 227.113281 C 172.183594 226.605469 171.773438 226.367188 171.050781 226.367188 L 170.34375 226.367188 L 170.34375 227.925781 Z M 170.949219 226.125 C 171.667969 226.125 171.957031 225.871094 171.957031 225.457031 C 171.957031 224.960938 171.625 224.78125 170.980469 224.78125 L 170.34375 224.78125 L 170.34375 226.125 Z M 170.042969 224.539062 L 171.046875 224.539062 C 171.777344 224.539062 172.257812 224.808594 172.257812 225.421875 C 172.257812 225.796875 172.0625 226.105469 171.699219 226.214844 L 171.699219 226.242188 C 172.167969 226.320312 172.476562 226.613281 172.476562 227.113281 C 172.476562 227.816406 171.941406 228.175781 171.121094 228.175781 L 170.042969 228.175781 Z M 170.042969 224.539062 "/>
<path fill-rule="nonzero" fill="rgb(100%, 100%, 100%)" fill-opacity="1" d="M 174.820312 227.078125 C 174.820312 226.550781 174.601562 226.171875 174.082031 226.171875 C 173.84375 226.171875 173.527344 226.308594 173.25 226.6875 C 173.292969 227.488281 173.578125 227.996094 174.132812 227.996094 C 174.527344 227.996094 174.820312 227.605469 174.820312 227.078125 M 174.863281 225.011719 C 174.710938 224.820312 174.496094 224.722656 174.269531 224.722656 C 173.722656 224.722656 173.257812 225.15625 173.242188 226.410156 C 173.480469 226.113281 173.800781 225.933594 174.121094 225.933594 C 174.742188 225.933594 175.109375 226.328125 175.109375 227.078125 C 175.109375 227.761719 174.65625 228.242188 174.128906 228.242188 C 173.421875 228.242188 172.957031 227.617188 172.957031 226.460938 C 172.957031 224.992188 173.582031 224.472656 174.265625 224.472656 C 174.605469 224.472656 174.851562 224.613281 175.039062 224.820312 Z M 174.863281 225.011719 "/>
<path fill-rule="nonzero" fill="rgb(100%, 100%, 100%)" fill-opacity="1" d="M 177.4375 227.078125 C 177.4375 226.550781 177.21875 226.171875 176.699219 226.171875 C 176.460938 226.171875 176.144531 226.308594 175.867188 226.6875 C 175.910156 227.488281 176.195312 227.996094 176.75 227.996094 C 177.144531 227.996094 177.4375 227.605469 177.4375 227.078125 M 177.484375 225.011719 C 177.328125 224.820312 177.113281 224.722656 176.886719 224.722656 C 176.339844 224.722656 175.875 225.15625 175.859375 226.410156 C 176.097656 226.113281 176.417969 225.933594 176.738281 225.933594 C 177.359375 225.933594 177.726562 226.328125 177.726562 227.078125 C 177.726562 227.761719 177.273438 228.242188 176.746094 228.242188 C 176.039062 228.242188 175.574219 227.617188 175.574219 226.460938 C 175.574219 224.992188 176.199219 224.472656 176.882812 224.472656 C 177.222656 224.472656 177.46875 224.613281 177.65625 224.820312 Z M 177.484375 225.011719 "/>
<path fill-rule="nonzero" fill="rgb(100%, 100%, 100%)" fill-opacity="1" d="M 151.5 234.753906 L 151.617188 233.847656 L 150.808594 233.847656 L 150.691406 234.753906 Z M 150.445312 234.980469 L 150 234.980469 L 150 234.753906 L 150.476562 234.753906 L 150.59375 233.847656 L 150.109375 233.847656 L 150.109375 233.617188 L 150.613281 233.617188 L 150.75 232.558594 L 150.964844 232.558594 L 150.832031 233.617188 L 151.636719 233.617188 L 151.773438 232.558594 L 151.988281 232.558594 L 151.851562 233.617188 L 152.300781 233.617188 L 152.300781 233.847656 L 151.828125 233.847656 L 151.71875 234.753906 L 152.1875 234.753906 L 152.1875 234.980469 L 151.683594 234.980469 L 151.550781 236.152344 L 151.332031 236.152344 L 151.472656 234.980469 L 150.667969 234.980469 L 150.523438 236.152344 L 150.308594 236.152344 Z M 150.445312 234.980469 "/>
<path fill-rule="nonzero" fill="rgb(100%, 100%, 100%)" fill-opacity="1" d="M 152.875 235.898438 L 153.699219 235.898438 L 153.699219 232.9375 L 153.0625 232.9375 L 153.0625 232.746094 C 153.359375 232.695312 153.582031 232.613281 153.757812 232.515625 L 153.992188 232.515625 L 153.992188 235.898438 L 154.75 235.898438 L 154.75 236.152344 L 152.875 236.152344 Z M 152.875 235.898438 "/>
<path fill-rule="nonzero" fill="rgb(100%, 100%, 100%)" fill-opacity="1" d="M 156.734375 234.871094 L 156.734375 233.527344 C 156.734375 233.363281 156.75 233.09375 156.765625 232.921875 L 156.738281 232.921875 C 156.65625 233.089844 156.554688 233.265625 156.449219 233.429688 L 155.464844 234.871094 Z M 157.535156 235.113281 L 157.019531 235.113281 L 157.019531 236.152344 L 156.734375 236.152344 L 156.734375 235.113281 L 155.128906 235.113281 L 155.128906 234.929688 L 156.734375 232.515625 L 157.019531 232.515625 L 157.019531 234.871094 L 157.535156 234.871094 Z M 157.535156 235.113281 "/>
<path fill-rule="nonzero" fill="rgb(100%, 100%, 100%)" fill-opacity="1" d="M 157.875 235.972656 C 159.105469 234.910156 159.597656 234.160156 159.597656 233.503906 C 159.597656 233.046875 159.367188 232.695312 158.851562 232.695312 C 158.539062 232.695312 158.253906 232.886719 158.042969 233.148438 L 157.859375 232.972656 C 158.132812 232.667969 158.441406 232.449219 158.882812 232.449219 C 159.515625 232.449219 159.890625 232.863281 159.890625 233.492188 C 159.890625 234.253906 159.300781 235.019531 158.332031 235.921875 C 158.53125 235.910156 158.742188 235.894531 158.933594 235.894531 L 160.066406 235.894531 L 160.066406 236.152344 L 157.875 236.152344 Z M 157.875 235.972656 "/>
<path fill-rule="nonzero" fill="rgb(100%, 100%, 100%)" fill-opacity="1" d="M 160.492188 235.972656 C 161.722656 234.910156 162.214844 234.160156 162.214844 233.503906 C 162.214844 233.046875 161.984375 232.695312 161.46875 232.695312 C 161.15625 232.695312 160.871094 232.886719 160.660156 233.148438 L 160.476562 232.972656 C 160.75 232.667969 161.058594 232.449219 161.5 232.449219 C 162.132812 232.449219 162.507812 232.863281 162.507812 233.492188 C 162.507812 234.253906 161.917969 235.019531 160.949219 235.921875 C 161.148438 235.910156 161.359375 235.894531 161.550781 235.894531 L 162.683594 235.894531 L 162.683594 236.152344 L 160.492188 236.152344 Z M 160.492188 235.972656 "/>
<path fill-rule="nonzero" fill="rgb(100%, 100%, 100%)" fill-opacity="1" d="M 164.585938 234.871094 L 164.585938 233.527344 C 164.585938 233.363281 164.601562 233.09375 164.613281 232.921875 L 164.589844 232.921875 C 164.507812 233.089844 164.40625 233.265625 164.300781 233.429688 L 163.3125 234.871094 Z M 165.382812 235.113281 L 164.871094 235.113281 L 164.871094 236.152344 L 164.585938 236.152344 L 164.585938 235.113281 L 162.980469 235.113281 L 162.980469 234.929688 L 164.585938 232.515625 L 164.871094 232.515625 L 164.871094 234.871094 L 165.382812 234.871094 Z M 165.382812 235.113281 "/>
<path fill-rule="nonzero" fill="rgb(100%, 100%, 100%)" fill-opacity="1" d="M 165.726562 235.972656 C 166.957031 234.910156 167.449219 234.160156 167.449219 233.503906 C 167.449219 233.046875 167.21875 232.695312 166.703125 232.695312 C 166.390625 232.695312 166.105469 232.886719 165.894531 233.148438 L 165.710938 232.972656 C 165.984375 232.667969 166.292969 232.449219 166.734375 232.449219 C 167.367188 232.449219 167.742188 232.863281 167.742188 233.492188 C 167.742188 234.253906 167.152344 235.019531 166.183594 235.921875 C 166.382812 235.910156 166.59375 235.894531 166.785156 235.894531 L 167.917969 235.894531 L 167.917969 236.152344 L 165.726562 236.152344 Z M 165.726562 235.972656 "/>
<path fill-rule="nonzero" fill="rgb(100%, 31.37207%, 1.176453%)" fill-opacity="1" d="M 458.15625 244.558594 L 300.167969 244.558594 L 300.167969 170.582031 L 458.15625 170.582031 Z M 458.15625 244.558594 "/>
<path fill-rule="nonzero" fill="rgb(100%, 100%, 100%)" fill-opacity="1" d="M 313.789062 182.582031 L 314.214844 182.070312 C 314.476562 182.316406 314.828125 182.480469 315.152344 182.480469 C 315.535156 182.480469 315.742188 182.316406 315.742188 182.058594 C 315.742188 181.78125 315.515625 181.699219 315.1875 181.558594 L 314.691406 181.347656 C 314.316406 181.195312 313.945312 180.894531 313.945312 180.355469 C 313.945312 179.753906 314.472656 179.289062 315.222656 179.289062 C 315.652344 179.289062 316.082031 179.457031 316.378906 179.761719 L 316.007812 180.226562 C 315.769531 180.03125 315.527344 179.921875 315.222656 179.921875 C 314.898438 179.921875 314.6875 180.066406 314.6875 180.3125 C 314.6875 180.574219 314.953125 180.671875 315.265625 180.796875 L 315.75 181 C 316.199219 181.183594 316.496094 181.46875 316.496094 182.003906 C 316.496094 182.605469 315.988281 183.121094 315.136719 183.121094 C 314.644531 183.121094 314.148438 182.925781 313.789062 182.582031 "/>
<path fill-rule="nonzero" fill="rgb(100%, 100%, 100%)" fill-opacity="1" d="M 317.074219 181.386719 L 317.074219 179.359375 L 317.8125 179.359375 L 317.8125 181.453125 C 317.8125 182.222656 318.078125 182.484375 318.511719 182.484375 C 318.953125 182.484375 319.230469 182.222656 319.230469 181.453125 L 319.230469 179.359375 L 319.941406 179.359375 L 319.941406 181.386719 C 319.941406 182.617188 319.417969 183.121094 318.511719 183.121094 C 317.613281 183.121094 317.074219 182.617188 317.074219 181.386719 "/>
<path fill-rule="nonzero" fill="rgb(100%, 100%, 100%)" fill-opacity="1" d="M 322.027344 182.480469 C 322.53125 182.480469 322.804688 182.300781 322.804688 181.917969 C 322.804688 181.558594 322.535156 181.410156 322.027344 181.410156 L 321.511719 181.410156 L 321.511719 182.480469 Z M 321.941406 180.859375 C 322.410156 180.859375 322.617188 180.671875 322.617188 180.375 C 322.617188 180.050781 322.398438 179.921875 321.953125 179.921875 L 321.511719 179.921875 L 321.511719 180.859375 Z M 320.773438 179.359375 L 322 179.359375 C 322.753906 179.359375 323.335938 179.578125 323.335938 180.265625 C 323.335938 180.605469 323.144531 180.957031 322.832031 181.0625 L 322.832031 181.089844 C 323.230469 181.183594 323.523438 181.464844 323.523438 181.960938 C 323.523438 182.707031 322.90625 183.050781 322.089844 183.050781 L 320.773438 183.050781 Z M 320.773438 179.359375 "/>
<path fill-rule="nonzero" fill="rgb(100%, 100%, 100%)" fill-opacity="1" d="M 324.691406 181.21875 C 324.691406 180 325.476562 179.289062 326.410156 179.289062 C 326.878906 179.289062 327.253906 179.511719 327.492188 179.761719 L 327.101562 180.230469 C 326.917969 180.050781 326.703125 179.921875 326.421875 179.921875 C 325.867188 179.921875 325.445312 180.402344 325.445312 181.195312 C 325.445312 181.996094 325.824219 182.484375 326.410156 182.484375 C 326.722656 182.484375 326.972656 182.332031 327.171875 182.117188 L 327.5625 182.578125 C 327.257812 182.929688 326.863281 183.121094 326.382812 183.121094 C 325.453125 183.121094 324.691406 182.453125 324.691406 181.21875 "/>
<path fill-rule="nonzero" fill="rgb(100%, 100%, 100%)" fill-opacity="1" d="M 330.273438 181.1875 C 330.273438 180.394531 329.925781 179.921875 329.375 179.921875 C 328.828125 179.921875 328.476562 180.394531 328.476562 181.1875 C 328.476562 181.976562 328.828125 182.480469 329.375 182.480469 C 329.925781 182.480469 330.273438 181.976562 330.273438 181.1875 M 327.722656 181.1875 C 327.722656 179.988281 328.398438 179.289062 329.375 179.289062 C 330.355469 179.289062 331.027344 179.992188 331.027344 181.1875 C 331.027344 182.386719 330.355469 183.121094 329.375 183.121094 C 328.398438 183.121094 327.722656 182.386719 327.722656 181.1875 "/>
<path fill-rule="nonzero" fill="rgb(100%, 100%, 100%)" fill-opacity="1" d="M 331.695312 179.359375 L 332.433594 179.359375 L 332.433594 182.433594 L 333.933594 182.433594 L 333.933594 183.050781 L 331.695312 183.050781 Z M 331.695312 179.359375 "/>
<path fill-rule="nonzero" fill="rgb(100%, 100%, 100%)" fill-opacity="1" d="M 336.699219 181.1875 C 336.699219 180.394531 336.347656 179.921875 335.800781 179.921875 C 335.25 179.921875 334.902344 180.394531 334.902344 181.1875 C 334.902344 181.976562 335.25 182.480469 335.800781 182.480469 C 336.347656 182.480469 336.699219 181.976562 336.699219 181.1875 M 334.148438 181.1875 C 334.148438 179.988281 334.824219 179.289062 335.800781 179.289062 C 336.777344 179.289062 337.453125 179.992188 337.453125 181.1875 C 337.453125 182.386719 336.777344 183.121094 335.800781 183.121094 C 334.824219 183.121094 334.148438 182.386719 334.148438 181.1875 "/>
<path fill-rule="nonzero" fill="rgb(100%, 100%, 100%)" fill-opacity="1" d="M 338.859375 181.070312 L 339.339844 181.070312 C 339.8125 181.070312 340.074219 180.871094 340.074219 180.476562 C 340.074219 180.078125 339.8125 179.941406 339.339844 179.941406 L 338.859375 179.941406 Z M 340.132812 183.050781 L 339.375 181.652344 L 338.859375 181.652344 L 338.859375 183.050781 L 338.121094 183.050781 L 338.121094 179.359375 L 339.410156 179.359375 C 340.183594 179.359375 340.796875 179.628906 340.796875 180.476562 C 340.796875 181.03125 340.515625 181.375 340.09375 181.539062 L 340.957031 183.050781 Z M 340.132812 183.050781 "/>
<path fill-rule="nonzero" fill="rgb(10.588074%, 14.509583%, 26.274109%)" fill-opacity="1" d="M 343.417969 182.617188 L 343.757812 182.148438 C 343.96875 182.351562 344.226562 182.523438 344.570312 182.523438 C 344.957031 182.523438 345.226562 182.277344 345.226562 181.84375 C 345.226562 181.414062 344.976562 181.175781 344.601562 181.175781 C 344.382812 181.175781 344.261719 181.230469 344.046875 181.371094 L 343.714844 181.148438 L 343.8125 179.359375 L 345.789062 179.359375 L 345.789062 179.972656 L 344.449219 179.972656 L 344.378906 180.757812 C 344.523438 180.683594 344.652344 180.648438 344.820312 180.648438 C 345.441406 180.648438 345.960938 181.019531 345.960938 181.824219 C 345.960938 182.644531 345.351562 183.121094 344.667969 183.121094 C 344.082031 183.121094 343.695312 182.890625 343.417969 182.617188 "/>
<path fill-rule="nonzero" fill="rgb(10.588074%, 14.509583%, 26.274109%)" fill-opacity="1" d="M 350.300781 181.941406 C 350.300781 181.398438 350.132812 181.1875 349.917969 181.1875 C 349.703125 181.1875 349.535156 181.398438 349.535156 181.941406 C 349.535156 182.488281 349.703125 182.703125 349.917969 182.703125 C 350.132812 182.703125 350.300781 182.488281 350.300781 181.941406 M 349.019531 181.941406 C 349.019531 181.199219 349.394531 180.773438 349.917969 180.773438 C 350.441406 180.773438 350.820312 181.199219 350.820312 181.941406 C 350.820312 182.679688 350.441406 183.121094 349.917969 183.121094 C 349.394531 183.121094 349.019531 182.679688 349.019531 181.941406 M 349.367188 179.289062 L 349.800781 179.289062 L 347.789062 183.121094 L 347.359375 183.121094 Z M 347.617188 180.449219 C 347.617188 179.90625 347.449219 179.703125 347.234375 179.703125 C 347.019531 179.703125 346.855469 179.90625 346.855469 180.449219 C 346.855469 180.996094 347.019531 181.214844 347.234375 181.214844 C 347.449219 181.214844 347.617188 180.996094 347.617188 180.449219 M 346.335938 180.449219 C 346.335938 179.714844 346.707031 179.289062 347.234375 179.289062 C 347.761719 179.289062 348.136719 179.714844 348.136719 180.449219 C 348.136719 181.195312 347.761719 181.628906 347.234375 181.628906 C 346.707031 181.628906 346.335938 181.195312 346.335938 180.449219 "/>
<path fill-rule="nonzero" fill="rgb(100%, 100%, 100%)" fill-opacity="1" d="M 315.011719 188.242188 C 315.730469 188.242188 316.074219 188 316.074219 187.414062 C 316.074219 186.828125 315.714844 186.640625 314.992188 186.640625 L 314.410156 186.640625 L 314.410156 188.242188 Z M 314.109375 186.394531 L 315.050781 186.394531 C 315.875 186.394531 316.378906 186.660156 316.378906 187.414062 C 316.378906 188.144531 315.882812 188.492188 315.074219 188.492188 L 314.410156 188.492188 L 314.410156 190.03125 L 314.109375 190.03125 Z M 314.109375 186.394531 "/>
<path fill-rule="nonzero" fill="rgb(100%, 100%, 100%)" fill-opacity="1" d="M 318.398438 188.566406 L 318.179688 187.910156 C 318.027344 187.484375 317.910156 187.101562 317.777344 186.664062 L 317.757812 186.664062 C 317.632812 187.101562 317.507812 187.484375 317.363281 187.910156 L 317.140625 188.566406 Z M 318.476562 188.808594 L 317.058594 188.808594 L 316.644531 190.03125 L 316.347656 190.03125 L 317.621094 186.390625 L 317.929688 186.390625 L 319.199219 190.03125 L 318.878906 190.03125 Z M 318.476562 188.808594 "/>
<path fill-rule="nonzero" fill="rgb(100%, 100%, 100%)" fill-opacity="1" d="M 319.710938 186.390625 L 320.023438 186.390625 L 321.507812 188.890625 L 321.910156 189.625 L 321.9375 189.625 C 321.917969 189.265625 321.898438 188.902344 321.898438 188.546875 L 321.898438 186.390625 L 322.183594 186.390625 L 322.183594 190.03125 L 321.871094 190.03125 L 320.390625 187.523438 L 319.980469 186.796875 L 319.957031 186.796875 C 319.972656 187.144531 319.996094 187.484375 319.996094 187.847656 L 319.996094 190.03125 L 319.710938 190.03125 Z M 319.710938 186.390625 "/>
<path fill-rule="nonzero" fill="rgb(100%, 100%, 100%)" fill-opacity="1" d="M 323.960938 186.648438 L 322.816406 186.648438 L 322.816406 186.390625 L 325.410156 186.390625 L 325.410156 186.648438 L 324.265625 186.648438 L 324.265625 190.03125 L 323.960938 190.03125 Z M 323.960938 186.648438 "/>
<path fill-rule="nonzero" fill="rgb(100%, 100%, 100%)" fill-opacity="1" d="M 328.410156 188.199219 C 328.410156 187.210938 327.929688 186.597656 327.207031 186.597656 C 326.488281 186.597656 326.011719 187.210938 326.011719 188.199219 C 326.011719 189.1875 326.488281 189.824219 327.207031 189.824219 C 327.929688 189.824219 328.410156 189.1875 328.410156 188.199219 M 325.699219 188.199219 C 325.699219 187.046875 326.328125 186.328125 327.207031 186.328125 C 328.09375 186.328125 328.71875 187.046875 328.71875 188.199219 C 328.71875 189.355469 328.09375 190.09375 327.207031 190.09375 C 326.328125 190.09375 325.699219 189.355469 325.699219 188.199219 "/>
<path fill-rule="nonzero" fill="rgb(100%, 100%, 100%)" fill-opacity="1" d="M 329.496094 186.390625 L 329.808594 186.390625 L 331.292969 188.890625 L 331.699219 189.625 L 331.722656 189.625 C 331.703125 189.265625 331.683594 188.902344 331.683594 188.546875 L 331.683594 186.390625 L 331.96875 186.390625 L 331.96875 190.03125 L 331.660156 190.03125 L 330.175781 187.523438 L 329.769531 186.796875 L 329.742188 186.796875 C 329.757812 187.144531 329.78125 187.484375 329.78125 187.847656 L 329.78125 190.03125 L 329.496094 190.03125 Z M 329.496094 186.390625 "/>
<path fill-rule="nonzero" fill="rgb(100%, 100%, 100%)" fill-opacity="1" d="M 332.972656 186.390625 L 334.984375 186.390625 L 334.984375 186.648438 L 333.273438 186.648438 L 333.273438 187.976562 L 334.714844 187.976562 L 334.714844 188.230469 L 333.273438 188.230469 L 333.273438 189.769531 L 335.039062 189.769531 L 335.039062 190.03125 L 332.972656 190.03125 Z M 332.972656 186.390625 "/>
<path fill-rule="nonzero" fill="rgb(100%, 100%, 100%)" fill-opacity="1" d="M 336.449219 189.777344 L 337.273438 189.777344 L 337.273438 186.816406 L 336.640625 186.816406 L 336.640625 186.621094 C 336.933594 186.570312 337.160156 186.492188 337.335938 186.390625 L 337.566406 186.390625 L 337.566406 189.777344 L 338.328125 189.777344 L 338.328125 190.03125 L 336.449219 190.03125 Z M 336.449219 189.777344 "/>
<path fill-rule="nonzero" fill="rgb(100%, 100%, 100%)" fill-opacity="1" d="M 340.761719 188.933594 C 340.761719 188.402344 340.542969 188.023438 340.027344 188.023438 C 339.785156 188.023438 339.472656 188.164062 339.191406 188.542969 C 339.238281 189.339844 339.519531 189.851562 340.074219 189.851562 C 340.46875 189.851562 340.761719 189.460938 340.761719 188.933594 M 340.808594 186.867188 C 340.652344 186.675781 340.4375 186.578125 340.214844 186.578125 C 339.664062 186.578125 339.203125 187.011719 339.1875 188.265625 C 339.425781 187.96875 339.746094 187.789062 340.066406 187.789062 C 340.683594 187.789062 341.050781 188.183594 341.050781 188.933594 C 341.050781 189.617188 340.597656 190.09375 340.070312 190.09375 C 339.367188 190.09375 338.902344 189.472656 338.902344 188.3125 C 338.902344 186.847656 339.527344 186.328125 340.210938 186.328125 C 340.550781 186.328125 340.792969 186.46875 340.984375 186.675781 Z M 340.808594 186.867188 "/>
<path fill-rule="nonzero" fill="rgb(100%, 100%, 100%)" fill-opacity="1" d="M 341.363281 189.621094 L 341.523438 189.417969 C 341.734375 189.636719 342.003906 189.84375 342.476562 189.84375 C 342.9375 189.84375 343.328125 189.460938 343.328125 188.871094 C 343.328125 188.292969 343 187.9375 342.492188 187.9375 C 342.226562 187.9375 342.054688 188.027344 341.847656 188.167969 L 341.660156 188.054688 L 341.785156 186.394531 L 343.445312 186.394531 L 343.445312 186.648438 L 342.042969 186.648438 L 341.9375 187.871094 C 342.113281 187.765625 342.296875 187.695312 342.546875 187.695312 C 343.144531 187.695312 343.625 188.054688 343.625 188.863281 C 343.625 189.652344 343.066406 190.097656 342.488281 190.097656 C 341.925781 190.097656 341.597656 189.847656 341.363281 189.621094 "/>
<path fill-rule="nonzero" fill="rgb(100%, 100%, 100%)" fill-opacity="1" d="M 343.984375 189.621094 L 344.140625 189.417969 C 344.351562 189.636719 344.621094 189.84375 345.09375 189.84375 C 345.554688 189.84375 345.945312 189.460938 345.945312 188.871094 C 345.945312 188.292969 345.617188 187.9375 345.109375 187.9375 C 344.84375 187.9375 344.671875 188.027344 344.464844 188.167969 L 344.277344 188.054688 L 344.402344 186.394531 L 346.0625 186.394531 L 346.0625 186.648438 L 344.660156 186.648438 L 344.554688 187.871094 C 344.730469 187.765625 344.914062 187.695312 345.164062 187.695312 C 345.761719 187.695312 346.242188 188.054688 346.242188 188.863281 C 346.242188 189.652344 345.683594 190.097656 345.105469 190.097656 C 344.542969 190.097656 344.214844 189.847656 343.984375 189.621094 "/>
<path fill-rule="nonzero" fill="rgb(100%, 100%, 100%)" fill-opacity="1" d="M 346.757812 188.207031 C 346.757812 187.046875 347.402344 186.328125 348.324219 186.328125 C 348.753906 186.328125 349.089844 186.539062 349.285156 186.765625 L 349.113281 186.960938 C 348.917969 186.742188 348.660156 186.597656 348.324219 186.597656 C 347.558594 186.597656 347.074219 187.214844 347.074219 188.199219 C 347.074219 189.191406 347.546875 189.824219 348.3125 189.824219 C 348.679688 189.824219 348.953125 189.671875 349.214844 189.386719 L 349.382812 189.578125 C 349.105469 189.898438 348.765625 190.097656 348.296875 190.097656 C 347.398438 190.097656 346.757812 189.371094 346.757812 188.207031 "/>
<path fill-rule="nonzero" fill="rgb(100%, 100%, 100%)" fill-opacity="1" d="M 313.878906 218.378906 C 313.878906 217.214844 314.523438 216.496094 315.445312 216.496094 C 315.875 216.496094 316.210938 216.707031 316.40625 216.9375 L 316.234375 217.128906 C 316.039062 216.910156 315.78125 216.765625 315.445312 216.765625 C 314.679688 216.765625 314.191406 217.386719 314.191406 218.367188 C 314.191406 219.359375 314.667969 219.996094 315.429688 219.996094 C 315.800781 219.996094 316.074219 219.839844 316.335938 219.554688 L 316.503906 219.746094 C 316.226562 220.070312 315.886719 220.265625 315.417969 220.265625 C 314.519531 220.265625 313.878906 219.542969 313.878906 218.378906 "/>
<path fill-rule="nonzero" fill="rgb(100%, 100%, 100%)" fill-opacity="1" d="M 318.773438 218.367188 C 318.773438 217.285156 318.460938 216.742188 317.992188 216.742188 C 317.519531 216.742188 317.210938 217.285156 317.210938 218.367188 C 317.210938 219.472656 317.519531 220.019531 317.992188 220.019531 C 318.460938 220.019531 318.773438 219.472656 318.773438 218.367188 M 316.921875 218.367188 C 316.921875 217.105469 317.332031 216.496094 317.992188 216.496094 C 318.652344 216.496094 319.0625 217.105469 319.0625 218.367188 C 319.0625 219.644531 318.652344 220.265625 317.992188 220.265625 C 317.332031 220.265625 316.921875 219.644531 316.921875 218.367188 "/>
<path fill-rule="nonzero" fill="rgb(100%, 100%, 100%)" fill-opacity="1" d="M 321.28125 216.5625 L 321.679688 216.5625 L 322.429688 218.652344 L 322.714844 219.449219 L 322.734375 219.449219 C 322.828125 219.1875 322.914062 218.917969 323.003906 218.652344 L 323.753906 216.5625 L 324.152344 216.5625 L 324.152344 220.199219 L 323.867188 220.199219 L 323.867188 217.894531 C 323.867188 217.59375 323.886719 217.195312 323.902344 216.890625 L 323.882812 216.890625 L 323.597656 217.703125 L 322.835938 219.808594 L 322.59375 219.808594 L 321.828125 217.703125 L 321.542969 216.890625 L 321.519531 216.890625 C 321.539062 217.195312 321.554688 217.59375 321.554688 217.894531 L 321.554688 220.199219 L 321.28125 220.199219 Z M 321.28125 216.5625 "/>
<path fill-rule="nonzero" fill="rgb(100%, 100%, 100%)" fill-opacity="1" d="M 326.675781 217.476562 C 326.675781 217.082031 326.421875 216.746094 325.980469 216.746094 C 325.597656 216.746094 325.324219 217.027344 325.324219 217.410156 C 325.324219 217.902344 325.78125 218.109375 326.234375 218.289062 C 326.523438 218.046875 326.675781 217.773438 326.675781 217.476562 M 326.777344 219.335938 C 326.777344 218.78125 326.269531 218.582031 325.71875 218.367188 C 325.375 218.574219 325.125 218.886719 325.125 219.28125 C 325.125 219.707031 325.484375 220.03125 325.980469 220.03125 C 326.460938 220.03125 326.777344 219.726562 326.777344 219.335938 M 324.851562 219.296875 C 324.851562 218.796875 325.210938 218.441406 325.542969 218.257812 L 325.542969 218.238281 C 325.285156 218.0625 325.046875 217.792969 325.046875 217.410156 C 325.046875 216.882812 325.453125 216.511719 325.984375 216.511719 C 326.585938 216.511719 326.949219 216.914062 326.949219 217.464844 C 326.949219 217.859375 326.652344 218.203125 326.449219 218.367188 L 326.449219 218.394531 C 326.757812 218.578125 327.066406 218.84375 327.066406 219.339844 C 327.066406 219.855469 326.628906 220.265625 325.980469 220.265625 C 325.324219 220.265625 324.851562 219.851562 324.851562 219.296875 "/>
<path fill-rule="nonzero" fill="rgb(100%, 100%, 100%)" fill-opacity="1" d="M 327.46875 220.019531 C 328.699219 218.957031 329.191406 218.207031 329.191406 217.550781 C 329.191406 217.09375 328.960938 216.742188 328.445312 216.742188 C 328.132812 216.742188 327.847656 216.933594 327.636719 217.195312 L 327.453125 217.019531 C 327.726562 216.71875 328.035156 216.496094 328.476562 216.496094 C 329.109375 216.496094 329.484375 216.910156 329.484375 217.539062 C 329.484375 218.300781 328.894531 219.066406 327.925781 219.96875 C 328.125 219.957031 328.335938 219.941406 328.527344 219.941406 L 329.65625 219.941406 L 329.65625 220.199219 L 327.46875 220.199219 Z M 327.46875 220.019531 "/>
<path fill-rule="nonzero" fill="rgb(100%, 100%, 100%)" fill-opacity="1" d="M 332.441406 218.738281 L 331.347656 216.5625 L 331.667969 216.5625 L 332.203125 217.675781 C 332.332031 217.9375 332.449219 218.195312 332.582031 218.460938 L 332.601562 218.460938 C 332.742188 218.195312 332.878906 217.9375 332.992188 217.675781 L 333.527344 216.5625 L 333.835938 216.5625 L 332.742188 218.738281 L 332.742188 220.199219 L 332.441406 220.199219 Z M 332.441406 218.738281 "/>
<path fill-rule="nonzero" fill="rgb(100%, 100%, 100%)" fill-opacity="1" d="M 335.890625 218.035156 C 335.859375 217.242188 335.570312 216.734375 335 216.734375 C 334.605469 216.734375 334.3125 217.128906 334.3125 217.660156 C 334.3125 218.183594 334.539062 218.566406 335.039062 218.566406 C 335.308594 218.566406 335.613281 218.414062 335.890625 218.035156 M 334.273438 219.726562 C 334.4375 219.914062 334.65625 220.015625 334.90625 220.015625 C 335.410156 220.015625 335.863281 219.574219 335.894531 218.316406 C 335.65625 218.605469 335.34375 218.804688 335.003906 218.804688 C 334.398438 218.804688 334.023438 218.398438 334.023438 217.660156 C 334.023438 216.976562 334.476562 216.496094 335.003906 216.496094 C 335.707031 216.496094 336.179688 217.085938 336.179688 218.183594 C 336.179688 219.714844 335.5625 220.265625 334.902344 220.265625 C 334.546875 220.265625 334.292969 220.121094 334.097656 219.914062 Z M 334.273438 219.726562 "/>
<path fill-rule="nonzero" fill="rgb(100%, 100%, 100%)" fill-opacity="1" d="M 336.867188 219.945312 L 337.691406 219.945312 L 337.691406 216.984375 L 337.058594 216.984375 L 337.058594 216.792969 C 337.351562 216.742188 337.578125 216.660156 337.753906 216.5625 L 337.988281 216.5625 L 337.988281 219.945312 L 338.746094 219.945312 L 338.746094 220.199219 L 336.867188 220.199219 Z M 336.867188 219.945312 "/>
<path fill-rule="nonzero" fill="rgb(100%, 100%, 100%)" fill-opacity="1" d="M 341.035156 216.5625 L 341.335938 216.5625 L 341.335938 218.535156 L 341.347656 218.535156 L 343.050781 216.5625 L 343.40625 216.5625 L 342.25 217.914062 L 343.570312 220.199219 L 343.226562 220.199219 L 342.050781 218.148438 L 341.335938 218.972656 L 341.335938 220.199219 L 341.035156 220.199219 Z M 341.035156 216.5625 "/>
<path fill-rule="nonzero" fill="rgb(100%, 100%, 100%)" fill-opacity="1" d="M 345.679688 218.367188 C 345.679688 217.285156 345.371094 216.742188 344.902344 216.742188 C 344.425781 216.742188 344.117188 217.285156 344.117188 218.367188 C 344.117188 219.472656 344.425781 220.019531 344.902344 220.019531 C 345.371094 220.019531 345.679688 219.472656 345.679688 218.367188 M 343.828125 218.367188 C 343.828125 217.105469 344.238281 216.496094 344.902344 216.496094 C 345.558594 216.496094 345.96875 217.105469 345.96875 218.367188 C 345.96875 219.644531 345.558594 220.265625 344.902344 220.265625 C 344.238281 220.265625 343.828125 219.644531 343.828125 218.367188 "/>
<path fill-rule="nonzero" fill="rgb(100%, 100%, 100%)" fill-opacity="1" d="M 314.410156 226.285156 L 315.101562 226.285156 C 315.730469 226.285156 316.082031 226.035156 316.082031 225.511719 C 316.082031 224.980469 315.730469 224.789062 315.101562 224.789062 L 314.410156 224.789062 Z M 316.121094 228.175781 L 315.152344 226.535156 L 314.410156 226.535156 L 314.410156 228.175781 L 314.109375 228.175781 L 314.109375 224.539062 L 315.171875 224.539062 C 315.894531 224.539062 316.382812 224.804688 316.382812 225.511719 C 316.382812 226.089844 316.03125 226.425781 315.476562 226.507812 L 316.460938 228.175781 Z M 316.121094 228.175781 "/>
<path fill-rule="nonzero" fill="rgb(100%, 100%, 100%)" fill-opacity="1" d="M 316.785156 227.996094 C 318.019531 226.933594 318.507812 226.183594 318.507812 225.527344 C 318.507812 225.070312 318.277344 224.71875 317.765625 224.71875 C 317.449219 224.71875 317.164062 224.910156 316.957031 225.171875 L 316.769531 224.996094 C 317.046875 224.695312 317.355469 224.472656 317.792969 224.472656 C 318.425781 224.472656 318.800781 224.886719 318.800781 225.515625 C 318.800781 226.277344 318.214844 227.042969 317.246094 227.945312 C 317.445312 227.933594 317.652344 227.917969 317.84375 227.917969 L 318.976562 227.917969 L 318.976562 228.175781 L 316.785156 228.175781 Z M 316.785156 227.996094 "/>
<path fill-rule="nonzero" fill="rgb(100%, 100%, 100%)" fill-opacity="1" d="M 319.332031 227.742188 L 319.5 227.546875 C 319.707031 227.773438 319.992188 227.992188 320.457031 227.992188 C 320.925781 227.992188 321.265625 227.683594 321.265625 227.214844 C 321.265625 226.722656 320.925781 226.394531 320.058594 226.394531 L 320.058594 226.148438 C 320.855469 226.148438 321.136719 225.804688 321.136719 225.371094 C 321.136719 224.976562 320.863281 224.71875 320.445312 224.710938 C 320.132812 224.71875 319.847656 224.882812 319.648438 225.097656 L 319.480469 224.898438 C 319.730469 224.664062 320.039062 224.472656 320.453125 224.46875 C 321.011719 224.472656 321.433594 224.789062 321.433594 225.351562 C 321.433594 225.820312 321.15625 226.121094 320.765625 226.25 L 320.765625 226.273438 C 321.207031 226.371094 321.5625 226.699219 321.5625 227.214844 C 321.5625 227.847656 321.085938 228.242188 320.464844 228.242188 C 319.902344 228.242188 319.5625 227.984375 319.332031 227.742188 "/>
<path fill-rule="nonzero" fill="rgb(100%, 100%, 100%)" fill-opacity="1" d="M 323.496094 226.894531 L 323.496094 225.550781 C 323.496094 225.386719 323.511719 225.117188 323.527344 224.949219 L 323.503906 224.949219 C 323.417969 225.113281 323.316406 225.289062 323.210938 225.453125 L 322.226562 226.894531 Z M 324.296875 227.136719 L 323.78125 227.136719 L 323.78125 228.175781 L 323.496094 228.175781 L 323.496094 227.136719 L 321.890625 227.136719 L 321.890625 226.953125 L 323.496094 224.539062 L 323.78125 224.539062 L 323.78125 226.894531 L 324.296875 226.894531 Z M 324.296875 227.136719 "/>
<path fill-rule="nonzero" fill="rgb(100%, 100%, 100%)" fill-opacity="1" d="M 326.191406 226.355469 C 326.191406 225.191406 326.855469 224.472656 327.8125 224.472656 C 328.308594 224.472656 328.621094 224.703125 328.820312 224.914062 L 328.648438 225.105469 C 328.460938 224.90625 328.210938 224.742188 327.820312 224.742188 C 327.011719 224.742188 326.503906 225.363281 326.503906 226.34375 C 326.503906 227.335938 326.980469 227.972656 327.796875 227.972656 C 328.109375 227.972656 328.40625 227.875 328.574219 227.710938 L 328.574219 226.621094 L 327.730469 226.621094 L 327.730469 226.363281 L 328.863281 226.363281 L 328.863281 227.828125 C 328.632812 228.070312 328.253906 228.242188 327.769531 228.242188 C 326.832031 228.242188 326.191406 227.519531 326.191406 226.355469 "/>
<path fill-rule="nonzero" fill="rgb(100%, 100%, 100%)" fill-opacity="1" d="M 331.25 225.453125 C 331.25 225.058594 330.996094 224.722656 330.550781 224.722656 C 330.171875 224.722656 329.898438 225 329.898438 225.386719 C 329.898438 225.878906 330.351562 226.085938 330.804688 226.265625 C 331.09375 226.023438 331.25 225.75 331.25 225.453125 M 331.347656 227.3125 C 331.347656 226.757812 330.839844 226.558594 330.289062 226.34375 C 329.945312 226.550781 329.695312 226.863281 329.695312 227.257812 C 329.695312 227.683594 330.058594 228.007812 330.550781 228.007812 C 331.035156 228.007812 331.347656 227.703125 331.347656 227.3125 M 329.421875 227.273438 C 329.421875 226.773438 329.78125 226.417969 330.117188 226.234375 L 330.117188 226.214844 C 329.855469 226.039062 329.617188 225.769531 329.617188 225.386719 C 329.617188 224.855469 330.027344 224.488281 330.554688 224.488281 C 331.160156 224.488281 331.519531 224.890625 331.519531 225.441406 C 331.519531 225.835938 331.226562 226.179688 331.019531 226.34375 L 331.019531 226.371094 C 331.328125 226.554688 331.636719 226.820312 331.636719 227.316406 C 331.636719 227.832031 331.199219 228.242188 330.550781 228.242188 C 329.898438 228.242188 329.421875 227.828125 329.421875 227.273438 "/>
<path fill-rule="nonzero" fill="rgb(100%, 100%, 100%)" fill-opacity="1" d="M 332.273438 227.921875 L 333.097656 227.921875 L 333.097656 224.960938 L 332.464844 224.960938 L 332.464844 224.769531 C 332.757812 224.71875 332.984375 224.636719 333.160156 224.539062 L 333.394531 224.539062 L 333.394531 227.921875 L 334.148438 227.921875 L 334.148438 228.175781 L 332.273438 228.175781 Z M 332.273438 227.921875 "/>
<path fill-rule="nonzero" fill="rgb(100%, 100%, 100%)" fill-opacity="1" d="M 337.449219 227.925781 C 338.152344 227.925781 338.582031 227.675781 338.582031 227.113281 C 338.582031 226.605469 338.175781 226.367188 337.449219 226.367188 L 336.742188 226.367188 L 336.742188 227.925781 Z M 337.347656 226.125 C 338.066406 226.125 338.355469 225.871094 338.355469 225.457031 C 338.355469 224.960938 338.023438 224.78125 337.378906 224.78125 L 336.742188 224.78125 L 336.742188 226.125 Z M 336.441406 224.539062 L 337.445312 224.539062 C 338.179688 224.539062 338.65625 224.808594 338.65625 225.421875 C 338.65625 225.796875 338.464844 226.105469 338.097656 226.214844 L 338.097656 226.242188 C 338.566406 226.320312 338.875 226.613281 338.875 227.113281 C 338.875 227.816406 338.339844 228.175781 337.519531 228.175781 L 336.441406 228.175781 Z M 336.441406 224.539062 "/>
<path fill-rule="nonzero" fill="rgb(100%, 100%, 100%)" fill-opacity="1" d="M 339.21875 227.742188 L 339.382812 227.546875 C 339.59375 227.773438 339.875 227.992188 340.339844 227.992188 C 340.808594 227.992188 341.148438 227.683594 341.148438 227.214844 C 341.148438 226.722656 340.808594 226.394531 339.941406 226.394531 L 339.941406 226.148438 C 340.738281 226.148438 341.019531 225.804688 341.019531 225.371094 C 341.019531 224.976562 340.75 224.71875 340.332031 224.710938 C 340.015625 224.71875 339.734375 224.882812 339.53125 225.097656 L 339.363281 224.898438 C 339.613281 224.664062 339.921875 224.472656 340.335938 224.46875 C 340.894531 224.472656 341.316406 224.789062 341.316406 225.351562 C 341.316406 225.820312 341.039062 226.121094 340.652344 226.25 L 340.652344 226.273438 C 341.089844 226.371094 341.449219 226.699219 341.449219 227.214844 C 341.449219 227.847656 340.96875 228.242188 340.351562 228.242188 C 339.785156 228.242188 339.449219 227.984375 339.21875 227.742188 "/>
<path fill-rule="nonzero" fill="rgb(100%, 100%, 100%)" fill-opacity="1" d="M 342.136719 227.921875 L 342.960938 227.921875 L 342.960938 224.960938 L 342.328125 224.960938 L 342.328125 224.769531 C 342.621094 224.71875 342.847656 224.636719 343.023438 224.539062 L 343.257812 224.539062 L 343.257812 227.921875 L 344.015625 227.921875 L 344.015625 228.175781 L 342.136719 228.175781 Z M 342.136719 227.921875 "/>
<path fill-rule="nonzero" fill="rgb(100%, 100%, 100%)" fill-opacity="1" d="M 315.28125 234.753906 L 315.398438 233.847656 L 314.589844 233.847656 L 314.472656 234.753906 Z M 314.226562 234.980469 L 313.78125 234.980469 L 313.78125 234.753906 L 314.257812 234.753906 L 314.375 233.847656 L 313.890625 233.847656 L 313.890625 233.617188 L 314.394531 233.617188 L 314.535156 232.558594 L 314.746094 232.558594 L 314.613281 233.617188 L 315.417969 233.617188 L 315.554688 232.558594 L 315.769531 232.558594 L 315.632812 233.617188 L 316.082031 233.617188 L 316.082031 233.847656 L 315.609375 233.847656 L 315.5 234.753906 L 315.96875 234.753906 L 315.96875 234.980469 L 315.464844 234.980469 L 315.332031 236.152344 L 315.113281 236.152344 L 315.253906 234.980469 L 314.449219 234.980469 L 314.304688 236.152344 L 314.089844 236.152344 Z M 314.226562 234.980469 "/>
<path fill-rule="nonzero" fill="rgb(100%, 100%, 100%)" fill-opacity="1" d="M 318.40625 234.640625 C 318.40625 233.996094 318.113281 233.671875 317.648438 233.671875 C 317.214844 233.671875 316.828125 234.03125 316.769531 234.640625 Z M 316.476562 234.824219 C 316.476562 233.960938 317.039062 233.421875 317.644531 233.421875 C 318.289062 233.421875 318.671875 233.882812 318.671875 234.660156 C 318.671875 234.734375 318.667969 234.804688 318.65625 234.871094 L 316.769531 234.871094 C 316.785156 235.519531 317.171875 235.972656 317.746094 235.972656 C 318.027344 235.972656 318.253906 235.882812 318.453125 235.742188 L 318.5625 235.957031 C 318.347656 236.09375 318.097656 236.21875 317.714844 236.21875 C 317.03125 236.21875 316.476562 235.699219 316.476562 234.824219 "/>
<path fill-rule="nonzero" fill="rgb(100%, 100%, 100%)" fill-opacity="1" d="M 320.757812 235.558594 L 320.757812 234.695312 C 319.707031 234.816406 319.347656 235.058594 319.347656 235.46875 C 319.347656 235.832031 319.597656 235.972656 319.894531 235.972656 C 320.1875 235.972656 320.441406 235.832031 320.757812 235.558594 M 319.058594 235.484375 C 319.058594 234.894531 319.582031 234.617188 320.757812 234.480469 C 320.765625 234.085938 320.652344 233.675781 320.148438 233.675781 C 319.796875 233.675781 319.492188 233.839844 319.308594 233.980469 L 319.179688 233.773438 C 319.382812 233.632812 319.753906 233.421875 320.1875 233.421875 C 320.820312 233.421875 321.046875 233.875 321.046875 234.464844 L 321.046875 236.152344 L 320.800781 236.152344 L 320.773438 235.8125 L 320.761719 235.8125 C 320.492188 236.03125 320.171875 236.21875 319.832031 236.21875 C 319.40625 236.21875 319.058594 235.976562 319.058594 235.484375 "/>
<path fill-rule="nonzero" fill="rgb(100%, 100%, 100%)" fill-opacity="1" d="M 321.5625 235.742188 L 321.722656 235.539062 C 321.929688 235.757812 322.203125 235.96875 322.675781 235.96875 C 323.132812 235.96875 323.523438 235.582031 323.523438 234.996094 C 323.523438 234.414062 323.199219 234.0625 322.691406 234.0625 C 322.425781 234.0625 322.25 234.152344 322.046875 234.289062 L 321.855469 234.175781 L 321.980469 232.515625 L 323.644531 232.515625 L 323.644531 232.769531 L 322.242188 232.769531 L 322.136719 233.992188 C 322.308594 233.886719 322.496094 233.816406 322.746094 233.816406 C 323.34375 233.816406 323.824219 234.175781 323.824219 234.984375 C 323.824219 235.773438 323.261719 236.21875 322.683594 236.21875 C 322.121094 236.21875 321.796875 235.972656 321.5625 235.742188 "/>
<path fill-rule="nonzero" fill="rgb(100%, 100%, 100%)" fill-opacity="1" d="M 324.5 235.898438 L 325.320312 235.898438 L 325.320312 232.9375 L 324.6875 232.9375 L 324.6875 232.746094 C 324.984375 232.695312 325.207031 232.613281 325.382812 232.515625 L 325.617188 232.515625 L 325.617188 235.898438 L 326.375 235.898438 L 326.375 236.152344 L 324.5 236.152344 Z M 324.5 235.898438 "/>
<path fill-rule="nonzero" fill="rgb(100%, 100%, 100%)" fill-opacity="1" d="M 327.117188 235.898438 L 327.9375 235.898438 L 327.9375 232.9375 L 327.304688 232.9375 L 327.304688 232.746094 C 327.601562 232.695312 327.824219 232.613281 328 232.515625 L 328.234375 232.515625 L 328.234375 235.898438 L 328.992188 235.898438 L 328.992188 236.152344 L 327.117188 236.152344 Z M 327.117188 235.898438 "/>
<path fill-rule="nonzero" fill="rgb(100%, 100%, 100%)" fill-opacity="1" d="M 330.832031 232.441406 C 330.722656 232.390625 330.617188 232.363281 330.515625 232.363281 C 330.230469 232.363281 330.105469 232.574219 330.105469 232.949219 L 330.105469 233.492188 L 330.710938 233.492188 L 330.710938 233.738281 L 330.105469 233.738281 L 330.105469 236.152344 L 329.816406 236.152344 L 329.816406 233.738281 L 329.449219 233.738281 L 329.449219 233.515625 L 329.816406 233.492188 L 329.816406 232.933594 C 329.816406 232.40625 330.054688 232.121094 330.503906 232.121094 C 330.636719 232.121094 330.777344 232.15625 330.902344 232.210938 Z M 330.832031 232.441406 "/>
</svg>
