<svg preserveAspectRatio="none" width="100%" height="100%" overflow="visible" style="display: block;" viewBox="0 0 18 18" fill="none" xmlns="http://www.w3.org/2000/svg">
<g id="SizeTarget_icon">
<path id="Exclude" d="M9 0C13.9706 0 18 4.02944 18 9C18 13.9706 13.9706 18 9 18C4.02944 18 0 13.9706 0 9C0 4.02944 4.02944 0 9 0ZM6.94922 5.91016C5.27169 5.91022 4.08324 6.60121 3.32422 7.29199C2.94815 7.6343 2.67613 7.97616 2.49707 8.23535C2.40739 8.3652 2.34048 8.47658 2.29395 8.55762C2.27082 8.59789 2.25237 8.63141 2.23926 8.65625C2.23279 8.66851 2.22675 8.67944 2.22266 8.6875C2.22085 8.69107 2.2191 8.69459 2.21777 8.69727C2.21713 8.69857 2.21635 8.70092 2.21582 8.70215L2.21484 8.70312V8.7041C2.21748 8.70578 2.2592 8.72786 2.88867 9.03418L2.21387 8.70508L2.0498 9.04297L2.22266 9.37793L2.22363 9.37891V9.38086C2.22416 9.38186 2.22578 9.38351 2.22656 9.38477C2.22795 9.3874 2.22957 9.39099 2.23145 9.39453C2.23565 9.40235 2.24137 9.41285 2.24805 9.4248C2.2615 9.44888 2.28006 9.48146 2.30371 9.52051C2.35143 9.59925 2.4213 9.70684 2.5127 9.83301C2.69513 10.0848 2.97039 10.4179 3.34863 10.75C4.11087 11.4191 5.29571 12.0898 6.94922 12.0898C8.59309 12.0898 10.2466 11.3299 11.6914 10.4941C12.0539 10.2845 12.4111 10.0658 12.7578 9.84668C13.6045 10.3947 14.3041 10.8921 14.8008 11.2051C15.1511 11.4255 15.6141 11.3198 15.835 10.9697C16.0556 10.6194 15.9508 10.1564 15.6006 9.93555C15.2907 9.74026 14.7714 9.37994 14.1367 8.95801C14.6571 8.62069 15.1316 8.31697 15.5654 8.0752C15.9271 7.87364 16.0568 7.41646 15.8555 7.05469C15.6538 6.69334 15.1975 6.56347 14.8359 6.76465C14.2522 7.08995 13.6135 7.5061 12.9658 7.92773C12.8931 7.97507 12.8193 8.02175 12.7461 8.06934C12.5082 7.92419 12.2657 7.77773 12.0195 7.6377C10.4832 6.76366 8.61453 5.91016 6.94922 5.91016ZM6.94922 7.41016C8.18966 7.41016 9.75889 8.07754 11.2773 8.94141C11.2925 8.95002 11.3072 8.96014 11.3223 8.96875C11.1952 9.04526 11.0676 9.12214 10.9395 9.19629C9.53277 10.0099 8.17316 10.5898 6.94922 10.5898C5.73528 10.5898 4.88897 10.1068 4.33789 9.62305C4.09426 9.40912 3.90936 9.19448 3.7793 9.02344C3.9072 8.84659 4.09015 8.62332 4.33398 8.40137C4.87884 7.90553 5.72131 7.41022 6.94922 7.41016ZM6.30469 8.64746C6.06337 8.40628 5.67208 8.40643 5.43066 8.64746C5.18924 8.88889 5.18924 9.28103 5.43066 9.52246C5.67208 9.76349 6.06337 9.76364 6.30469 9.52246C6.54612 9.28103 6.54612 8.88889 6.30469 8.64746Z" fill="var(--fill-0, white)"/>
</g>
</svg>
