<svg preserveAspectRatio="none" width="100%" height="100%" overflow="visible" style="display: block;" viewBox="0 0 140 140" fill="none" xmlns="http://www.w3.org/2000/svg">
<g id="boxicons:planet-filled" opacity="0.1">
<path id="Vector" d="M108.734 16.8572C104.067 17.3822 99.2253 19.6572 94.3253 23.4489C87.0919 19.6572 79.0419 17.6155 70.6419 17.4989C56.5253 17.4989 43.2836 22.6322 33.3086 32.3739C28.3592 37.187 24.4136 42.9339 21.7001 49.2821C18.9866 55.6303 17.5591 62.4536 17.5003 69.3572C17.4058 75.9486 18.5536 82.4989 20.8836 88.6655C14.6419 95.6655 8.80861 110.132 16.0419 118.299C19.0753 121.682 23.3919 123.199 28.5836 123.199C44.3919 123.199 68.3086 109.199 88.4336 91.3489C115.209 67.6072 135.917 36.3989 123.784 22.6905C121.943 20.5835 119.614 18.9605 117 17.9637C114.386 16.967 111.568 16.6271 108.792 16.9739L108.734 16.8572ZM24.7336 110.482C23.4503 109.024 24.7336 104.182 27.0086 100.099C28.6419 102.374 30.3919 104.591 32.3753 106.632C33.6586 107.916 35.0003 109.082 36.3419 110.249C30.2169 112.116 26.0753 111.999 24.7336 110.424V110.482ZM113.692 41.0655C111.884 38.3239 109.9 35.6405 107.567 33.2489C106.575 32.2572 105.584 31.3239 104.534 30.4489C106.809 29.1655 108.617 28.5822 109.9 28.4072C112 28.1739 113.575 28.7572 114.917 30.2739C116.2 31.7322 115.909 35.5822 113.634 41.0072L113.692 41.0655ZM94.2086 97.8239C84.6419 106.341 72.8003 115.091 60.8419 121.624C63.6419 122.091 66.4419 122.441 69.3586 122.441H70.0586C83.8836 122.441 96.8336 117.191 106.692 107.566C116.725 97.8239 122.325 84.6989 122.5 70.5822C122.5 69.2405 122.442 67.9572 122.384 66.6155C114.917 77.3489 105.059 88.0822 94.2086 97.7655V97.8239Z" fill="var(--fill-0, #1C24EA)"/>
</g>
</svg>
