<svg preserveAspectRatio="none" width="100%" height="100%" overflow="visible" style="display: block;" viewBox="0 0 140 140" fill="none" xmlns="http://www.w3.org/2000/svg">
<g id="ri:building-fill" opacity="0.1">
<path id="Vector" d="M122.5 110.833H134.167V122.5H5.83333V110.833H17.5V23.3333C17.5 21.7862 18.1146 20.3025 19.2085 19.2085C20.3025 18.1146 21.7862 17.5 23.3333 17.5H81.6667C83.2138 17.5 84.6975 18.1146 85.7915 19.2085C86.8854 20.3025 87.5 21.7862 87.5 23.3333V110.833H99.1667V52.5H116.667C118.214 52.5 119.697 53.1146 120.791 54.2085C121.885 55.3025 122.5 56.7862 122.5 58.3333V110.833ZM40.8333 64.1667V75.8333H64.1667V64.1667H40.8333ZM40.8333 40.8333V52.5H64.1667V40.8333H40.8333Z" fill="var(--fill-0, #1C24EA)"/>
</g>
</svg>
