<svg preserveAspectRatio="none" width="100%" height="100%" overflow="visible" style="display: block;" viewBox="0 0 140 140" fill="none" xmlns="http://www.w3.org/2000/svg">
<g id="solar:global-bold" opacity="0.1">
<path id="Vector" fill-rule="evenodd" clip-rule="evenodd" d="M11.8304 65.625C12.934 50.9526 19.5415 37.2393 30.3289 27.2329C41.1163 17.2266 55.2867 11.6664 70.0004 11.6667C65.1588 11.6667 60.8421 13.79 57.2838 17.0392C53.7546 20.2708 50.7738 24.7858 48.3588 30.1175C45.9321 35.4842 44.0421 41.7608 42.7646 48.5683C41.7285 54.2007 41.1085 59.9016 40.9096 65.625H11.8304ZM11.8304 74.375H40.9096C41.1196 80.22 41.7438 85.9717 42.7646 91.4317C44.0479 98.2392 45.9321 104.516 48.3588 109.882C50.7738 115.214 53.7546 119.729 57.2838 122.961C60.8421 126.21 65.1588 128.333 70.0004 128.333C39.2588 128.333 14.0646 104.551 11.8304 74.375Z" fill="var(--fill-0, #1C24EA)"/>
<path id="Vector_2" d="M70.0001 19.8043C68.3959 19.8043 66.3251 20.4868 63.9159 22.6918C61.4893 24.9143 59.0568 28.3968 56.9101 33.1393C54.7751 37.8526 53.0426 43.5401 51.8526 49.8984C50.9193 54.9034 50.3359 60.2118 50.1259 65.6251H89.8743C89.6843 60.3477 89.1072 55.0914 88.1476 49.8984C86.9576 43.5401 85.2309 37.8526 83.0901 33.1393C80.9434 28.3968 78.5168 24.9143 76.0901 22.6976C73.6751 20.4868 71.6043 19.8043 70.0001 19.8043ZM51.8526 90.1018C53.0426 96.4601 54.7751 102.148 56.9101 106.861C59.0568 111.603 61.4893 115.086 63.9101 117.303C66.3251 119.513 68.4018 120.196 70.0001 120.196C71.6043 120.196 73.6751 119.513 76.0843 117.308C78.5168 115.086 80.9434 111.603 83.0901 106.861C85.2251 102.148 86.9576 96.4601 88.1476 90.1018C89.0868 85.0968 89.6701 79.7884 89.8743 74.3751H50.1259C50.3301 79.7884 50.9134 85.0968 51.8526 90.1018Z" fill="var(--fill-0, #1C24EA)"/>
<path id="Vector_3" d="M70 11.6667C74.8475 11.6667 79.1583 13.79 82.7167 17.0392C86.2458 20.2708 89.2325 24.7858 91.6417 30.1175C94.0742 35.4842 95.9583 41.7608 97.2358 48.5683C98.2567 54.0283 98.8808 59.78 99.0908 65.625H128.17C127.066 50.9526 120.459 37.2393 109.672 27.2329C98.8842 17.2266 84.7138 11.6664 70 11.6667ZM97.2358 91.4317C95.9583 98.2392 94.0742 104.516 91.6417 109.882C89.2325 115.214 86.2458 119.729 82.7167 122.961C79.1583 126.21 74.8475 128.333 70 128.333C100.742 128.333 125.936 104.551 128.17 74.375H99.0908C98.892 80.0984 98.272 85.7993 97.2358 91.4317Z" fill="var(--fill-0, #1C24EA)"/>
</g>
</svg>
